<?xml version="1.0" encoding="UTF-8"?>
<svg width="1600" height="600" version="1.1" viewBox="0 0 423.33 158.75" xmlns="http://www.w3.org/2000/svg" xmlns:xlink="http://www.w3.org/1999/xlink">
 <defs>
  <linearGradient id="linearGradient54" x1="108.83" x2="199.35" y1="59.232" y2="59.232" gradientTransform="matrix(3.1332 0 0 3.1332 -337.2 -103.24)" gradientUnits="userSpaceOnUse">
   <stop stop-color="#1f2937" offset="0"/>
  </linearGradient>
 </defs>
 <path d="m3.7985 117.06v-96.499h19.753v38.988h42.032v-38.988h19.818v96.499h-19.818v-41.125h-42.032v41.125zm131.34 1.4248q-11.075 0-19.105-4.5335-8.0308-4.5335-12.37-12.888-4.2744-8.3546-4.2744-19.818 0-11.204 4.2744-19.624 4.3392-8.4193 12.111-13.147 7.8365-4.7278 18.393-4.7278 9.4556 0 17.162 4.0154 7.7069 4.0154 12.24 12.176 4.5982 8.1603 4.5982 20.53v5.4402h-49.545q0.32382 8.8727 4.9221 13.406 4.5982 4.5335 11.917 4.5335 5.1164 0 8.7432-2.1372 3.6916-2.202 5.2459-6.4117l17.616 3.303q-2.6553 9.0022-11.01 14.442-8.2898 5.4402-20.919 5.4402zm-16.385-44.752h30.698q-0.7124-7.0593-4.5335-11.204t-10.557-4.1449q-6.9945 0-11.01 4.3392-4.0154 4.2744-4.5983 11.01zm82.121-53.171v96.499h-19.429v-96.499zm16.515 123.57v-99.478h19.105v12.176h0.9067q1.2953-2.8496 3.7563-5.8935 2.5258-3.0439 6.606-5.1164 4.1449-2.0725 10.298-2.0725 8.0308 0 14.701 4.1449t10.621 12.435q4.0154 8.2898 4.0154 20.66 0 12.046-3.8858 20.401-3.8858 8.2898-10.557 12.629-6.6707 4.2744-15.025 4.2744-5.8935 0-9.9737-2.0077t-6.6707-4.9221q-2.5258-2.9792-3.8858-5.8935h-0.58287v38.664zm34.584-41.449q7.5774 0 11.528-6.0878 4.0154-6.0878 4.0154-15.673 0-9.5203-3.9506-15.543-3.9506-6.0878-11.593-6.0878-7.5126 0-11.593 5.8935-4.0154 5.8935-4.0154 15.738t4.0801 15.802q4.0801 5.9583 11.528 5.9583z" fill="url(#linearGradient54)" aria-label="Help"/>
 <path d="m362.33 11.942c31.859 0 57.507-0.29699 57.507-0.29699v78.23c0 30.375-57.507 54.828-57.507 54.828s-57.507-24.453-57.507-54.828v-78.23s25.648 0.29699 57.507 0.29699z" fill="#16a085"/>
 <path d="m362.29 118.28q-11.788 0-20.596-4.4042-8.8084-4.469-13.666-12.306-4.8576-7.9016-4.8576-18.2v-63.019h17.293v61.594q0 9.0675 5.8938 14.961 5.9586 5.8939 15.933 5.8939 9.9742 0 15.868-5.8939 5.9586-5.8938 5.9586-14.961v-61.594h17.293v63.019q0 10.298-4.9223 18.2-4.8576 7.8369-13.666 12.306-8.8084 4.4042-20.531 4.4042z" fill="#fff" aria-label="U"/>
</svg>
