<?xml version="1.0" encoding="UTF-8"?>
<svg width="600" height="600" version="1.1" viewBox="0 0 158.75 158.75" xmlns="http://www.w3.org/2000/svg">
 <g fill="#b8b8b8">
  <rect x="45.341" y="102.88" width="6.539" height="5.3268" rx="17.076" ry="5.3268"/>
  <rect x="104.53" y="103.67" width="6.99" height="4.5376" rx="17.076" ry="4.5376"/>
  <rect x="50.447" y="89.763" width="54.567" height="13.909" rx="17.076" ry="4.5376"/>
 </g>
 <path d="m77.723 11.64c31.859 0 57.507-0.29699 57.507-0.29699v78.23c0 30.375-57.507 54.828-57.507 54.828s-57.507-24.453-57.507-54.828v-78.23s25.648 0.29699 57.507 0.29699z" fill="#fff"/>
 <path d="m77.684 117.98q-11.788 0-20.596-4.4042-8.8084-4.469-13.666-12.306-4.8576-7.9016-4.8576-18.2v-63.019h17.293v61.594q0 9.0675 5.8938 14.961 5.9586 5.8939 15.933 5.8939t15.868-5.8939q5.9586-5.8938 5.9586-14.961v-61.594h17.293v63.019q0 10.298-4.9223 18.2-4.8576 7.8369-13.666 12.306-8.8084 4.4042-20.531 4.4042z" fill="#b8b8b8" stroke-width=".26458" aria-label="U"/>
</svg>